<svg alt="barlogo" version="1.1" xmlns="http://www.w3.org/2000/svg" fill-rule="evenodd"><path d="M67.102,33.208c19.321,3.562 28.129,12.209 28.129,29.36c0,10.313 -5.317,19.467 -13.946,24.708c-0.273,0.166 8.169,4.961 8.168,13.286c-0.004,20.02 -24.737,19.593 -29.203,19.593c-19.633,0 -30.913,-2.063 -30.913,-2.063l-3.907,-83.721c-0.011,-1.266 29.761,-3.321 41.672,-1.163Zm-7.055,57.356c0,0 12.057,-1.665 11.828,8.091c-0.202,8.612 -10.474,6.798 -11.828,7.157l0,-15.248Zm0.668,-26.827c0,0 12.878,-0.984 12.884,8.139c0.006,9.446 -12.656,8.265 -12.656,8.265l-0.228,-16.404Z" fill="#d1d1d1"/><path d="M73.102,12.208c19.321,3.562 28.129,12.209 28.129,29.36c0,10.313 -5.317,19.467 -13.946,24.708c-0.273,0.166 8.169,4.961 8.168,13.286c-0.004,20.02 -24.737,19.593 -29.203,19.593c-19.633,0 -30.913,-2.063 -30.913,-2.063l-3.907,-83.721c-0.011,-1.266 29.761,-3.321 41.672,-1.163Zm-7.055,57.356c0,0 12.057,-1.665 11.828,8.091c-0.202,8.612 -10.474,6.798 -11.828,7.157l0,-15.248Zm0.668,-26.827c0,0 12.878,-0.984 12.884,8.139c0.006,9.446 -12.656,8.265 -12.656,8.265l-0.228,-16.404Z" fill="#517eff"/></svg>
