<?xml version="1.0" encoding="UTF-8" standalone="no"?><!DOCTYPE svg PUBLIC "-//W3C//DTD SVG 1.1//EN" "http://www.w3.org/Graphics/SVG/1.1/DTD/svg11.dtd"><svg width="100%" height="100%" viewBox="0 0 366 222" version="1.1" xmlns="http://www.w3.org/2000/svg" xmlns:xlink="http://www.w3.org/1999/xlink" xml:space="preserve" xmlns:serif="http://www.serif.com/" style="fill-rule:evenodd;clip-rule:evenodd;stroke-linejoin:round;stroke-miterlimit:1.41421;"><path d="M206.028,7.5l-160.128,0c-21.12,0 -38.4,17.28 -38.4,38.4l0,129.408c0,21.12 17.28,38.4 38.4,38.4l160.128,0c21.12,0 38.4,-17.28 38.4,-38.4l0,-129.408c0,-21.504 -17.28,-38.4 -38.4,-38.4Z" style="fill:none;stroke:#fff;stroke-width:15px;"/><path d="M330.06,28.62c-2.304,0.384 -4.608,1.536 -6.528,2.688l-59.904,34.56l0,89.088l60.288,34.56c11.136,6.528 24.96,2.688 31.488,-8.448c1.92,-3.456 3.072,-7.296 3.072,-11.52l0,-118.656c0,-14.208 -13.44,-25.728 -28.416,-22.272Z" style="fill:none;stroke:#fff;stroke-width:15px;"/></svg>