<?xml version="1.0" encoding="UTF-8" standalone="no"?><!DOCTYPE svg PUBLIC "-//W3C//DTD SVG 1.1//EN" "http://www.w3.org/Graphics/SVG/1.1/DTD/svg11.dtd"><svg width="100%" height="100%" viewBox="0 0 277 169" version="1.1" xmlns="http://www.w3.org/2000/svg" xmlns:xlink="http://www.w3.org/1999/xlink" xml:space="preserve" xmlns:serif="http://www.serif.com/" style="fill-rule:evenodd;clip-rule:evenodd;stroke-linejoin:round;stroke-miterlimit:1.41421;"><path d="M184.542,132.702c0,15.84 -12.959,28.8 -28.8,28.8l-120.096,0c-15.84,0 -28.8,-12.96 -28.8,-28.8l0,-97.056c0,-15.84 12.96,-28.799 28.8,-28.8l120.096,0c15.841,0.001 28.8,12.672 28.8,28.8l0.15,21.726l59.178,-32.67c1.44,-0.864 3.168,-1.728 4.896,-2.016c11.233,-2.591 21.312,6.048 21.312,16.704l0,88.992c0,3.168 -0.864,6.048 -2.304,8.64c-4.896,8.352 -15.264,11.232 -23.616,6.336l-59.466,-33.42l-0.15,22.764Z" style="fill:none;stroke:#fff;stroke-width:9.66px;"/></svg>
