<?xml version="1.0" encoding="UTF-8" standalone="no"?><!DOCTYPE svg PUBLIC "-//W3C//DTD SVG 1.1//EN" "http://www.w3.org/Graphics/SVG/1.1/DTD/svg11.dtd"><svg width="100%" height="100%" viewBox="0 0 366 222" version="1.1" xmlns="http://www.w3.org/2000/svg" xmlns:xlink="http://www.w3.org/1999/xlink" xml:space="preserve" xmlns:serif="http://www.serif.com/" style="fill-rule:evenodd;clip-rule:evenodd;stroke-linejoin:round;stroke-miterlimit:1.41421;"><path d="M244.428,175.308c0,21.12 -17.28,38.4 -38.4,38.4l-160.128,0c-21.12,0 -38.4,-17.28 -38.4,-38.4l0,-129.408c0,-21.12 17.28,-38.4 38.4,-38.4l160.128,0c21.12,0 38.4,16.896 38.4,38.4l0,129.408Z" style="fill:#fff;"/><path d="M263.628,65.868l59.904,-34.56c1.92,-1.152 4.224,-2.304 6.528,-2.688c14.977,-3.456 28.416,8.064 28.416,22.272l0,118.656c0,4.224 -1.152,8.064 -3.072,11.52c-6.528,11.136 -20.352,14.976 -31.488,8.448l-60.288,-34.56l0,-89.088Z" style="fill:#fff;"/></svg>