<?xml version="1.0" encoding="UTF-8" standalone="no"?><!DOCTYPE svg PUBLIC "-//W3C//DTD SVG 1.1//EN" "http://www.w3.org/Graphics/SVG/1.1/DTD/svg11.dtd"><svg width="100%" height="100%" viewBox="0 0 59 15" version="1.1" xmlns="http://www.w3.org/2000/svg" xmlns:xlink="http://www.w3.org/1999/xlink" xml:space="preserve" xmlns:serif="http://www.serif.com/" style="fill-rule:evenodd;clip-rule:evenodd;stroke-linejoin:round;stroke-miterlimit:1.41421;"><path d="M5.546,2.92c2.572,0.474 3.744,1.625 3.744,3.908c0,1.373 -0.708,2.591 -1.856,3.288c-0.036,0.023 1.087,0.661 1.087,1.769c0,2.664 -3.292,2.607 -3.887,2.607c-2.613,0 -4.114,-0.274 -4.114,-0.274l-0.52,-11.143c-0.001,-0.168 3.961,-0.442 5.546,-0.155Zm-0.939,7.634c0,0 1.605,-0.222 1.575,1.077c-0.027,1.146 -1.394,0.905 -1.575,0.952l0,-2.029Zm0.089,-3.57c0,0 1.714,-0.131 1.715,1.083c0.001,1.257 -1.684,1.1 -1.684,1.1l-0.031,-2.183Z" style="fill:#d1d1d1;"/><path d="M6.345,0.125c2.571,0.474 3.744,1.625 3.744,3.908c0,1.373 -0.708,2.591 -1.856,3.288c-0.037,0.023 1.087,0.661 1.087,1.769c-0.001,2.664 -3.293,2.607 -3.887,2.607c-2.613,0 -4.114,-0.274 -4.114,-0.274l-0.52,-11.143c-0.002,-0.168 3.961,-0.442 5.546,-0.155Zm-0.939,7.634c0,0 1.605,-0.222 1.574,1.077c-0.027,1.146 -1.394,0.905 -1.574,0.952l0,-2.029Zm0.089,-3.57c0,0 1.714,-0.131 1.715,1.083c0,1.257 -1.685,1.1 -1.685,1.1l-0.03,-2.183Z" style="fill:#517eff;"/><text x="13.835px" y="11.765px" style="font-family:'Inter-Regular', 'Inter', sans-serif;font-size:12.236px;">Finance</text></svg>