<?xml version="1.0" encoding="UTF-8" standalone="no"?><!DOCTYPE svg PUBLIC "-//W3C//DTD SVG 1.1//EN" "http://www.w3.org/Graphics/SVG/1.1/DTD/svg11.dtd"><svg width="100%" height="100%" viewBox="0 0 46 11" version="1.1" xmlns="http://www.w3.org/2000/svg" xmlns:xlink="http://www.w3.org/1999/xlink" xml:space="preserve" xmlns:serif="http://www.serif.com/" style="fill-rule:evenodd;clip-rule:evenodd;stroke-linejoin:round;stroke-miterlimit:1.41421;"><path d="M4.16,2.19c1.929,0.356 2.808,1.219 2.808,2.931c0,1.03 -0.531,1.943 -1.392,2.466c-0.027,0.017 0.815,0.496 0.815,1.327c0,1.998 -2.469,1.955 -2.915,1.955c-1.96,0 -3.086,-0.205 -3.086,-0.205l-0.39,-8.358c-0.001,-0.126 2.971,-0.331 4.16,-0.116Zm-0.705,5.726c0,0 1.204,-0.167 1.182,0.807c-0.021,0.86 -1.046,0.679 -1.182,0.714l0,-1.521Zm0.067,-2.678c0,0 1.286,-0.098 1.286,0.812c0.001,0.943 -1.263,0.825 -1.263,0.825l-0.023,-1.637Z" style="fill:#d1d1d1;"/><path d="M4.759,0.094c1.928,0.355 2.808,1.219 2.808,2.931c0,1.03 -0.531,1.943 -1.392,2.466c-0.028,0.017 0.815,0.496 0.815,1.327c-0.001,1.998 -2.47,1.955 -2.915,1.955c-1.96,0 -3.086,-0.206 -3.086,-0.206l-0.39,-8.357c-0.001,-0.126 2.971,-0.331 4.16,-0.116Zm-0.704,5.725c0,0 1.203,-0.166 1.18,0.808c-0.02,0.86 -1.045,0.679 -1.18,0.714l0,-1.522Zm0.066,-2.677c0,0 1.286,-0.098 1.287,0.812c0,0.943 -1.264,0.825 -1.264,0.825l-0.023,-1.637Z" style="fill:#517eff;"/><path d="M11.178,2.232l3.303,0l0,0.646l-2.644,0l0,2.065l2.644,0l0,0.646l-2.644,0l0,3.235l-0.659,0l0,-6.592Z" style="fill-rule:nonzero;"/><path d="M15.742,1.941c0.143,0 0.265,0.051 0.366,0.152c0.101,0.102 0.152,0.224 0.152,0.368c0,0.14 -0.051,0.261 -0.152,0.363c-0.101,0.101 -0.223,0.152 -0.366,0.152c-0.14,0 -0.26,-0.051 -0.361,-0.152c-0.101,-0.102 -0.152,-0.223 -0.152,-0.363c0,-0.144 0.051,-0.266 0.152,-0.368c0.101,-0.101 0.221,-0.152 0.361,-0.152Zm-0.311,2.008l0.627,0l0,4.875l-0.627,0l0,-4.875Z" style="fill-rule:nonzero;"/><path d="M17.362,3.949l0.627,0l0,0.873c0.251,-0.334 0.529,-0.584 0.834,-0.75c0.305,-0.166 0.636,-0.249 0.995,-0.249c0.364,0 0.687,0.093 0.97,0.278c0.282,0.185 0.49,0.435 0.625,0.748c0.134,0.314 0.201,0.802 0.201,1.465l0,2.51l-0.627,0l0,-2.326c0,-0.561 -0.023,-0.936 -0.07,-1.125c-0.072,-0.322 -0.212,-0.565 -0.418,-0.728c-0.206,-0.163 -0.475,-0.244 -0.807,-0.244c-0.379,0 -0.719,0.126 -1.019,0.376c-0.3,0.251 -0.498,0.562 -0.594,0.933c-0.06,0.242 -0.09,0.684 -0.09,1.326l0,1.788l-0.627,0l0,-4.875Z" style="fill-rule:nonzero;"/><path d="M27.816,3.949l0,4.875l-0.618,0l0,-0.838c-0.263,0.32 -0.558,0.56 -0.885,0.721c-0.327,0.162 -0.685,0.242 -1.073,0.242c-0.69,0 -1.28,-0.25 -1.768,-0.75c-0.489,-0.501 -0.733,-1.109 -0.733,-1.826c0,-0.702 0.247,-1.303 0.74,-1.802c0.492,-0.499 1.085,-0.748 1.779,-0.748c0.4,0 0.762,0.085 1.086,0.255c0.324,0.171 0.609,0.426 0.854,0.767l0,-0.896l0.618,0Zm-2.507,0.479c-0.349,0 -0.671,0.086 -0.967,0.257c-0.295,0.172 -0.53,0.413 -0.705,0.723c-0.174,0.311 -0.261,0.639 -0.261,0.985c0,0.343 0.088,0.671 0.264,0.985c0.176,0.313 0.412,0.557 0.709,0.731c0.297,0.175 0.615,0.262 0.956,0.262c0.343,0 0.668,-0.086 0.975,-0.259c0.308,-0.173 0.544,-0.408 0.71,-0.703c0.165,-0.295 0.248,-0.628 0.248,-0.998c0,-0.564 -0.186,-1.036 -0.557,-1.415c-0.372,-0.379 -0.829,-0.568 -1.372,-0.568Z" style="fill-rule:nonzero;"/><path d="M29.228,3.949l0.627,0l0,0.873c0.251,-0.334 0.529,-0.584 0.833,-0.75c0.305,-0.166 0.637,-0.249 0.995,-0.249c0.365,0 0.688,0.093 0.97,0.278c0.283,0.185 0.491,0.435 0.625,0.748c0.135,0.314 0.202,0.802 0.202,1.465l0,2.51l-0.627,0l0,-2.326c0,-0.561 -0.024,-0.936 -0.07,-1.125c-0.073,-0.322 -0.212,-0.565 -0.418,-0.728c-0.206,-0.163 -0.475,-0.244 -0.807,-0.244c-0.379,0 -0.719,0.126 -1.02,0.376c-0.3,0.251 -0.498,0.562 -0.593,0.933c-0.06,0.242 -0.09,0.684 -0.09,1.326l0,1.788l-0.627,0l0,-4.875Z" style="fill-rule:nonzero;"/><path d="M39.556,4.961l-0.497,0.309c-0.43,-0.57 -1.016,-0.855 -1.759,-0.855c-0.594,0 -1.087,0.191 -1.479,0.572c-0.393,0.382 -0.589,0.846 -0.589,1.392c0,0.356 0.09,0.69 0.271,1.003c0.18,0.313 0.428,0.557 0.743,0.73c0.315,0.173 0.667,0.259 1.058,0.259c0.716,0 1.301,-0.285 1.755,-0.856l0.497,0.327c-0.233,0.351 -0.546,0.624 -0.939,0.817c-0.392,0.194 -0.84,0.29 -1.342,0.29c-0.77,0 -1.41,-0.245 -1.917,-0.735c-0.508,-0.49 -0.762,-1.085 -0.762,-1.788c0,-0.472 0.119,-0.91 0.356,-1.315c0.238,-0.404 0.564,-0.72 0.979,-0.947c0.415,-0.227 0.88,-0.341 1.394,-0.341c0.322,0 0.634,0.049 0.934,0.148c0.3,0.099 0.555,0.227 0.764,0.385c0.209,0.159 0.387,0.36 0.533,0.605Z" style="fill-rule:nonzero;"/><path d="M44.866,7.206l0.529,0.278c-0.173,0.341 -0.374,0.615 -0.601,0.824c-0.227,0.21 -0.483,0.369 -0.767,0.478c-0.284,0.109 -0.606,0.163 -0.964,0.163c-0.796,0 -1.418,-0.26 -1.866,-0.782c-0.449,-0.521 -0.673,-1.11 -0.673,-1.767c0,-0.619 0.19,-1.17 0.57,-1.654c0.481,-0.615 1.125,-0.923 1.933,-0.923c0.831,0 1.495,0.315 1.991,0.946c0.353,0.445 0.532,1 0.538,1.666l-4.387,0c0.012,0.567 0.193,1.031 0.543,1.393c0.35,0.362 0.782,0.543 1.297,0.543c0.248,0 0.49,-0.043 0.724,-0.129c0.235,-0.087 0.435,-0.201 0.599,-0.344c0.165,-0.143 0.343,-0.373 0.534,-0.692Zm0,-1.313c-0.084,-0.334 -0.205,-0.602 -0.365,-0.802c-0.161,-0.2 -0.372,-0.361 -0.635,-0.484c-0.264,-0.122 -0.54,-0.183 -0.83,-0.183c-0.479,0 -0.89,0.153 -1.234,0.461c-0.251,0.224 -0.441,0.56 -0.57,1.008l3.634,0Z" style="fill-rule:nonzero;"/></svg>