<?xml version="1.0" encoding="UTF-8" standalone="no"?><!DOCTYPE svg PUBLIC "-//W3C//DTD SVG 1.1//EN" "http://www.w3.org/Graphics/SVG/1.1/DTD/svg11.dtd"><svg width="100%" height="100%" viewBox="0 0 14 12" version="1.1" xmlns="http://www.w3.org/2000/svg" xmlns:xlink="http://www.w3.org/1999/xlink" xml:space="preserve" xmlns:serif="http://www.serif.com/" style="fill-rule:evenodd;clip-rule:evenodd;stroke-linejoin:round;stroke-miterlimit:1.41421;"><path d="M5.431,5.618c-0.283,-0.055 -0.5,-0.299 -0.5,-0.542l0,-4.637c0,-0.242 0.196,-0.439 0.439,-0.439c0.242,0 0.438,0.197 0.438,0.439l0,4.405c0.6,-0.213 1.802,-0.454 1.889,-0.948c0.134,-0.771 -1.726,-1.089 -1.6,-1.643c0.08,-0.35 1.674,-0.985 1.93,-1.301c0.185,-0.23 -0.65,-0.594 -0.533,-0.668c0.133,-0.083 1.523,-0.319 1.892,0.053c0.393,0.397 0.281,1.452 0.154,1.64c-0.127,0.188 -0.596,-0.512 -0.821,-0.463c-0.312,0.066 -1.39,0.595 -1.444,0.803c-0.055,0.208 0.608,0.252 0.988,0.602c0.193,0.178 0.461,0.612 0.382,1.023c-0.072,0.371 -0.475,0.722 -0.637,0.848c-0.414,0.322 -1.041,0.521 -1.375,0.62c-0.574,0.17 -0.918,0.264 -1.202,0.208Z" style="fill:#f9f9fa;"/><rect x="0" y="7.855" width="0.37" height="3.715" style="fill:#f9f9fa;fill-rule:nonzero;"/><path d="M1.162,8.822l0.353,0l0,0.493c0.141,-0.189 0.297,-0.33 0.468,-0.423c0.172,-0.094 0.358,-0.14 0.56,-0.14c0.205,0 0.387,0.052 0.546,0.156c0.158,0.105 0.276,0.245 0.351,0.422c0.076,0.177 0.114,0.452 0.114,0.826l0,1.414l-0.353,0l0,-1.311c0,-0.316 -0.013,-0.527 -0.04,-0.634c-0.04,-0.181 -0.119,-0.318 -0.235,-0.41c-0.116,-0.092 -0.267,-0.138 -0.453,-0.138c-0.214,0 -0.405,0.071 -0.574,0.213c-0.169,0.141 -0.28,0.316 -0.334,0.525c-0.034,0.136 -0.05,0.385 -0.05,0.747l0,1.008l-0.353,0l0,-2.748Z" style="fill:#f9f9fa;fill-rule:nonzero;"/><path d="M4.05,8.822l0.376,0l0.92,2.003l0.909,-2.003l0.378,0l-1.255,2.748l-0.065,0l-1.263,-2.748Z" style="fill:#f9f9fa;fill-rule:nonzero;"/><path d="M9.479,10.658l0.297,0.157c-0.097,0.192 -0.21,0.347 -0.338,0.465c-0.128,0.117 -0.271,0.207 -0.431,0.269c-0.16,0.061 -0.341,0.092 -0.543,0.092c-0.447,0 -0.797,-0.147 -1.049,-0.441c-0.252,-0.294 -0.378,-0.626 -0.378,-0.996c0,-0.349 0.106,-0.659 0.32,-0.932c0.271,-0.347 0.633,-0.52 1.087,-0.52c0.468,0 0.841,0.177 1.12,0.533c0.199,0.25 0.3,0.564 0.303,0.939l-2.467,0c0.006,0.319 0.108,0.581 0.305,0.785c0.197,0.204 0.44,0.306 0.729,0.306c0.14,0 0.276,-0.024 0.408,-0.073c0.132,-0.049 0.244,-0.113 0.336,-0.194c0.093,-0.08 0.193,-0.21 0.301,-0.39Zm0,-0.74c-0.047,-0.188 -0.116,-0.339 -0.206,-0.452c-0.09,-0.112 -0.209,-0.203 -0.357,-0.272c-0.148,-0.069 -0.304,-0.104 -0.467,-0.104c-0.269,0 -0.5,0.087 -0.694,0.26c-0.141,0.126 -0.248,0.316 -0.32,0.568l2.044,0Z" style="fill:#f9f9fa;fill-rule:nonzero;"/><path d="M11.903,9.123l-0.227,0.235c-0.188,-0.184 -0.373,-0.275 -0.553,-0.275c-0.114,0 -0.213,0.037 -0.294,0.113c-0.082,0.076 -0.123,0.164 -0.123,0.265c0,0.09 0.034,0.175 0.101,0.255c0.068,0.083 0.209,0.18 0.424,0.291c0.263,0.136 0.442,0.267 0.536,0.394c0.093,0.128 0.139,0.272 0.139,0.432c0,0.225 -0.079,0.416 -0.237,0.573c-0.159,0.156 -0.356,0.235 -0.594,0.235c-0.158,0 -0.309,-0.035 -0.453,-0.104c-0.144,-0.069 -0.263,-0.164 -0.357,-0.285l0.222,-0.253c0.18,0.204 0.371,0.306 0.573,0.306c0.142,0 0.262,-0.046 0.362,-0.137c0.099,-0.09 0.149,-0.197 0.149,-0.32c0,-0.101 -0.033,-0.191 -0.099,-0.27c-0.066,-0.078 -0.214,-0.176 -0.444,-0.293c-0.248,-0.128 -0.416,-0.255 -0.506,-0.379c-0.089,-0.125 -0.133,-0.267 -0.133,-0.427c0,-0.209 0.071,-0.382 0.213,-0.52c0.142,-0.138 0.322,-0.207 0.539,-0.207c0.252,0 0.506,0.123 0.762,0.371Z" style="fill:#f9f9fa;fill-rule:nonzero;"/><path d="M12.836,7.802l0.353,0l0,1.02l0.559,0l0,0.306l-0.559,0l0,2.442l-0.353,0l0,-2.442l-0.482,0l0,-0.306l0.482,0l0,-1.02Z" style="fill:#f9f9fa;fill-rule:nonzero;"/></svg>