<?xml version="1.0" encoding="UTF-8" standalone="no"?><!DOCTYPE svg PUBLIC "-//W3C//DTD SVG 1.1//EN" "http://www.w3.org/Graphics/SVG/1.1/DTD/svg11.dtd"><svg width="100%" height="100%" viewBox="0 0 34 8" version="1.1" xmlns="http://www.w3.org/2000/svg" xmlns:xlink="http://www.w3.org/1999/xlink" xml:space="preserve" xmlns:serif="http://www.serif.com/" style="fill-rule:evenodd;clip-rule:evenodd;stroke-linejoin:round;stroke-miterlimit:1.41421;"><path d="M3.12,0.413c1.446,0.266 2.106,0.914 2.106,2.198c0,0.772 -0.398,1.457 -1.044,1.849c-0.021,0.013 0.611,0.372 0.611,0.996c0,1.498 -1.852,1.466 -2.186,1.466c-1.47,0 -2.314,-0.155 -2.314,-0.155l-0.293,-6.267c-0.001,-0.095 2.228,-0.249 3.12,-0.087Zm-0.528,4.293c0,0 0.902,-0.124 0.885,0.606c-0.015,0.645 -0.784,0.51 -0.885,0.536l0,-1.142Zm0.05,-2.007c0,0 0.964,-0.074 0.965,0.609c0,0.707 -0.948,0.618 -0.948,0.618l-0.017,-1.227Z" style="fill:#f9f9fa;"/><path d="M7.934,1.266l2.478,0l0,0.485l-1.983,0l0,1.548l1.983,0l0,0.485l-1.983,0l0,2.426l-0.495,0l0,-4.944Z" style="fill:#f9f9fa;fill-rule:nonzero;"/><path d="M11.357,1.048c0.108,0 0.199,0.038 0.275,0.114c0.076,0.076 0.114,0.168 0.114,0.276c0,0.105 -0.038,0.196 -0.114,0.272c-0.076,0.076 -0.167,0.114 -0.275,0.114c-0.105,0 -0.195,-0.038 -0.27,-0.114c-0.076,-0.076 -0.114,-0.167 -0.114,-0.272c0,-0.108 0.038,-0.2 0.114,-0.276c0.075,-0.076 0.165,-0.114 0.27,-0.114Zm-0.233,1.506l0.47,0l0,3.656l-0.47,0l0,-3.656Z" style="fill:#f9f9fa;fill-rule:nonzero;"/><path d="M12.572,2.554l0.471,0l0,0.655c0.188,-0.251 0.396,-0.438 0.625,-0.563c0.229,-0.124 0.477,-0.187 0.746,-0.187c0.273,0 0.516,0.07 0.728,0.209c0.211,0.139 0.367,0.326 0.469,0.561c0.1,0.235 0.15,0.601 0.15,1.099l0,1.882l-0.47,0l0,-1.744c0,-0.421 -0.017,-0.702 -0.052,-0.844c-0.054,-0.242 -0.159,-0.424 -0.314,-0.546c-0.154,-0.122 -0.356,-0.183 -0.605,-0.183c-0.284,0 -0.539,0.094 -0.764,0.282c-0.225,0.188 -0.374,0.421 -0.446,0.7c-0.045,0.181 -0.067,0.513 -0.067,0.994l0,1.341l-0.471,0l0,-3.656Z" style="fill:#f9f9fa;fill-rule:nonzero;"/><path d="M20.413,2.554l0,3.656l-0.464,0l0,-0.628c-0.197,0.24 -0.418,0.42 -0.663,0.54c-0.246,0.122 -0.514,0.182 -0.805,0.182c-0.518,0 -0.96,-0.188 -1.326,-0.563c-0.367,-0.375 -0.55,-0.831 -0.55,-1.369c0,-0.527 0.185,-0.977 0.555,-1.352c0.369,-0.374 0.814,-0.561 1.334,-0.561c0.3,0 0.572,0.064 0.815,0.192c0.243,0.128 0.457,0.319 0.64,0.575l0,-0.672l0.464,0Zm-1.88,0.359c-0.262,0 -0.504,0.065 -0.726,0.193c-0.221,0.129 -0.397,0.31 -0.528,0.542c-0.131,0.233 -0.196,0.479 -0.196,0.739c0,0.257 0.066,0.503 0.198,0.739c0.132,0.234 0.309,0.417 0.532,0.548c0.222,0.131 0.461,0.196 0.717,0.196c0.257,0 0.501,-0.064 0.731,-0.194c0.231,-0.13 0.408,-0.306 0.532,-0.527c0.124,-0.221 0.186,-0.471 0.186,-0.749c0,-0.423 -0.139,-0.777 -0.417,-1.061c-0.279,-0.284 -0.622,-0.426 -1.029,-0.426Z" style="fill:#f9f9fa;fill-rule:nonzero;"/><path d="M21.472,2.554l0.47,0l0,0.655c0.188,-0.251 0.397,-0.438 0.625,-0.563c0.229,-0.124 0.478,-0.187 0.746,-0.187c0.274,0 0.516,0.07 0.728,0.209c0.212,0.139 0.368,0.326 0.468,0.561c0.102,0.235 0.152,0.601 0.152,1.099l0,1.882l-0.47,0l0,-1.744c0,-0.421 -0.018,-0.702 -0.053,-0.844c-0.055,-0.242 -0.159,-0.424 -0.313,-0.546c-0.155,-0.122 -0.357,-0.183 -0.606,-0.183c-0.284,0 -0.539,0.094 -0.765,0.282c-0.225,0.188 -0.373,0.421 -0.444,0.7c-0.045,0.181 -0.068,0.513 -0.068,0.994l0,1.341l-0.47,0l0,-3.656Z" style="fill:#f9f9fa;fill-rule:nonzero;"/><path d="M29.218,3.313l-0.373,0.232c-0.322,-0.428 -0.762,-0.642 -1.319,-0.642c-0.446,0 -0.815,0.144 -1.109,0.429c-0.295,0.287 -0.442,0.635 -0.442,1.044c0,0.267 0.067,0.518 0.203,0.753c0.135,0.234 0.321,0.417 0.557,0.547c0.237,0.13 0.501,0.194 0.794,0.194c0.537,0 0.976,-0.213 1.316,-0.642l0.373,0.246c-0.175,0.263 -0.41,0.468 -0.704,0.612c-0.294,0.146 -0.63,0.218 -1.007,0.218c-0.577,0 -1.057,-0.184 -1.438,-0.551c-0.381,-0.368 -0.571,-0.814 -0.571,-1.341c0,-0.354 0.089,-0.683 0.267,-0.987c0.178,-0.303 0.423,-0.54 0.734,-0.71c0.311,-0.17 0.66,-0.256 1.046,-0.256c0.241,0 0.475,0.037 0.7,0.111c0.225,0.075 0.416,0.171 0.573,0.289c0.157,0.119 0.29,0.27 0.4,0.454Z" style="fill:#f9f9fa;fill-rule:nonzero;"/><path d="M33.2,4.997l0.397,0.208c-0.13,0.256 -0.28,0.461 -0.451,0.618c-0.17,0.158 -0.362,0.277 -0.575,0.359c-0.213,0.081 -0.454,0.122 -0.723,0.122c-0.597,0 -1.063,-0.195 -1.399,-0.587c-0.337,-0.39 -0.505,-0.832 -0.505,-1.325c0,-0.464 0.142,-0.877 0.427,-1.24c0.361,-0.462 0.844,-0.693 1.45,-0.693c0.623,0 1.121,0.237 1.493,0.71c0.265,0.334 0.399,0.75 0.404,1.249l-3.29,0c0.009,0.426 0.144,0.774 0.407,1.045c0.262,0.272 0.586,0.407 0.973,0.407c0.186,0 0.367,-0.032 0.543,-0.096c0.176,-0.066 0.326,-0.151 0.449,-0.258c0.124,-0.108 0.257,-0.28 0.4,-0.519Zm0,-0.985c-0.063,-0.251 -0.153,-0.452 -0.273,-0.602c-0.121,-0.15 -0.279,-0.27 -0.477,-0.363c-0.198,-0.091 -0.405,-0.137 -0.622,-0.137c-0.359,0 -0.668,0.115 -0.926,0.346c-0.188,0.168 -0.33,0.42 -0.427,0.756l2.725,0Z" style="fill:#f9f9fa;fill-rule:nonzero;"/><rect x="6.473" y="0" width="0.105" height="7.349" style="fill:#f9f9fa;"/></svg>