<?xml version="1.0" encoding="UTF-8" standalone="no"?><!DOCTYPE svg PUBLIC "-//W3C//DTD SVG 1.1//EN" "http://www.w3.org/Graphics/SVG/1.1/DTD/svg11.dtd"><svg width="100%" height="100%" viewBox="0 0 4 5" version="1.1" xmlns="http://www.w3.org/2000/svg" xmlns:xlink="http://www.w3.org/1999/xlink" xml:space="preserve" xmlns:serif="http://www.serif.com/" style="fill-rule:evenodd;clip-rule:evenodd;stroke-linejoin:round;stroke-miterlimit:1.41421;"><path d="M0.376,4.214c-0.213,-0.042 -0.376,-0.225 -0.376,-0.407l0,-3.478c0,-0.182 0.148,-0.329 0.329,-0.329c0.182,0 0.329,0.147 0.329,0.329l0,3.304c0.45,-0.16 1.352,-0.341 1.417,-0.711c0.1,-0.578 -1.295,-0.817 -1.201,-1.233c0.06,-0.262 1.257,-0.738 1.448,-0.975c0.139,-0.173 -0.487,-0.446 -0.399,-0.501c0.099,-0.062 1.142,-0.24 1.418,0.04c0.295,0.297 0.211,1.089 0.116,1.23c-0.095,0.141 -0.447,-0.384 -0.616,-0.348c-0.234,0.05 -1.042,0.447 -1.083,0.603c-0.041,0.156 0.456,0.189 0.741,0.451c0.145,0.134 0.347,0.459 0.287,0.767c-0.054,0.278 -0.356,0.542 -0.478,0.636c-0.311,0.242 -0.781,0.391 -1.031,0.465c-0.431,0.128 -0.689,0.198 -0.901,0.156Z" style="fill:#f9f9fa;"/></svg>