<?xml version="1.0" encoding="UTF-8" standalone="no"?><!DOCTYPE svg PUBLIC "-//W3C//DTD SVG 1.1//EN" "http://www.w3.org/Graphics/SVG/1.1/DTD/svg11.dtd"><svg width="100%" height="100%" viewBox="0 0 21 6" version="1.1" xmlns="http://www.w3.org/2000/svg" xmlns:xlink="http://www.w3.org/1999/xlink" xml:space="preserve" xmlns:serif="http://www.serif.com/" style="fill-rule:evenodd;clip-rule:evenodd;stroke-linejoin:round;stroke-miterlimit:1.41421;"><rect x="5.797" y="0.024" width="0.084" height="5.959" style="fill:#f9f9fa;"/><path d="M0.501,5.818c-0.284,-0.055 -0.501,-0.299 -0.501,-0.542l0,-4.637c0,-0.243 0.197,-0.439 0.439,-0.439c0.242,0 0.438,0.196 0.438,0.439l0,4.405c0.6,-0.213 1.803,-0.454 1.889,-0.948c0.134,-0.771 -1.726,-1.089 -1.6,-1.644c0.08,-0.349 1.675,-0.984 1.93,-1.3c0.185,-0.23 -0.649,-0.594 -0.532,-0.668c0.132,-0.083 1.522,-0.32 1.891,0.053c0.393,0.397 0.281,1.452 0.154,1.64c-0.127,0.188 -0.596,-0.512 -0.821,-0.463c-0.312,0.066 -1.389,0.595 -1.444,0.803c-0.055,0.208 0.608,0.252 0.988,0.602c0.193,0.178 0.462,0.612 0.382,1.023c-0.072,0.37 -0.474,0.722 -0.637,0.848c-0.414,0.322 -1.041,0.521 -1.375,0.62c-0.574,0.17 -0.918,0.264 -1.201,0.208Z" style="fill:#f9f9fa;"/><rect x="7.127" y="1.153" width="0.37" height="3.715" style="fill:#f9f9fa;"/><path d="M8.289,2.12l0.352,0l0,0.493c0.142,-0.189 0.298,-0.33 0.469,-0.423c0.172,-0.094 0.358,-0.141 0.56,-0.141c0.205,0 0.387,0.053 0.545,0.157c0.159,0.104 0.276,0.245 0.352,0.422c0.076,0.177 0.113,0.452 0.113,0.826l0,1.414l-0.352,0l0,-1.311c0,-0.316 -0.014,-0.528 -0.04,-0.634c-0.041,-0.182 -0.119,-0.318 -0.235,-0.41c-0.116,-0.092 -0.267,-0.138 -0.454,-0.138c-0.213,0 -0.404,0.071 -0.573,0.212c-0.169,0.142 -0.28,0.317 -0.334,0.526c-0.034,0.136 -0.051,0.385 -0.051,0.747l0,1.008l-0.352,0l0,-2.748Z" style="fill:#f9f9fa;fill-rule:nonzero;"/><path d="M11.177,2.12l0.375,0l0.921,2.003l0.909,-2.003l0.378,0l-1.255,2.748l-0.065,0l-1.263,-2.748Z" style="fill:#f9f9fa;fill-rule:nonzero;"/><path d="M16.606,3.956l0.297,0.157c-0.098,0.192 -0.21,0.346 -0.338,0.464c-0.128,0.118 -0.272,0.208 -0.431,0.269c-0.16,0.062 -0.341,0.092 -0.543,0.092c-0.447,0 -0.797,-0.146 -1.049,-0.44c-0.252,-0.294 -0.379,-0.626 -0.379,-0.997c0,-0.348 0.107,-0.659 0.321,-0.931c0.27,-0.347 0.633,-0.521 1.087,-0.521c0.467,0 0.841,0.178 1.12,0.533c0.198,0.251 0.299,0.564 0.303,0.94l-2.468,0c0.007,0.319 0.109,0.58 0.306,0.785c0.196,0.204 0.44,0.306 0.729,0.306c0.14,0 0.275,-0.025 0.407,-0.073c0.132,-0.049 0.245,-0.114 0.337,-0.194c0.093,-0.081 0.193,-0.21 0.301,-0.39Zm0,-0.74c-0.048,-0.188 -0.116,-0.339 -0.206,-0.452c-0.09,-0.113 -0.209,-0.204 -0.357,-0.273c-0.148,-0.069 -0.304,-0.103 -0.467,-0.103c-0.269,0 -0.5,0.087 -0.694,0.26c-0.141,0.126 -0.248,0.316 -0.32,0.568l2.044,0Z" style="fill:#f9f9fa;fill-rule:nonzero;"/><path d="M19.03,2.421l-0.227,0.235c-0.188,-0.184 -0.373,-0.276 -0.553,-0.276c-0.115,0 -0.213,0.038 -0.295,0.114c-0.081,0.076 -0.122,0.164 -0.122,0.265c0,0.089 0.034,0.174 0.101,0.255c0.067,0.083 0.209,0.179 0.424,0.291c0.263,0.136 0.441,0.267 0.536,0.393c0.092,0.128 0.139,0.272 0.139,0.432c0,0.226 -0.08,0.417 -0.238,0.574c-0.158,0.156 -0.356,0.234 -0.593,0.234c-0.158,0 -0.309,-0.034 -0.453,-0.103c-0.144,-0.069 -0.263,-0.164 -0.357,-0.285l0.222,-0.253c0.18,0.204 0.371,0.306 0.573,0.306c0.142,0 0.262,-0.046 0.361,-0.137c0.1,-0.091 0.149,-0.198 0.149,-0.321c0,-0.101 -0.032,-0.191 -0.098,-0.27c-0.066,-0.077 -0.214,-0.175 -0.445,-0.293c-0.247,-0.128 -0.416,-0.254 -0.505,-0.378c-0.089,-0.125 -0.134,-0.267 -0.134,-0.427c0,-0.209 0.071,-0.382 0.214,-0.52c0.142,-0.139 0.322,-0.208 0.539,-0.208c0.252,0 0.506,0.124 0.762,0.372Z" style="fill:#f9f9fa;fill-rule:nonzero;"/><path d="M19.963,1.1l0.352,0l0,1.02l0.56,0l0,0.306l-0.56,0l0,2.442l-0.352,0l0,-2.442l-0.482,0l0,-0.306l0.482,0l0,-1.02Z" style="fill:#f9f9fa;fill-rule:nonzero;"/></svg>
