<?xml version="1.0" encoding="UTF-8" standalone="no"?><!DOCTYPE svg PUBLIC "-//W3C//DTD SVG 1.1//EN" "http://www.w3.org/Graphics/SVG/1.1/DTD/svg11.dtd"><svg width="100%" height="100%" viewBox="0 0 13 4" version="1.1" xmlns="http://www.w3.org/2000/svg" xmlns:xlink="http://www.w3.org/1999/xlink" xml:space="preserve" xmlns:serif="http://www.serif.com/" style="fill-rule:evenodd;clip-rule:evenodd;stroke-linejoin:round;stroke-miterlimit:1.41421;"><path d="M5.595,0.719l0.001,-0.037l0.003,-0.037l0.003,-0.019l0.003,-0.017l0.002,-0.018l0.004,-0.019l0.008,-0.036l0.005,-0.018l0.005,-0.017l0.005,-0.018l0.006,-0.017l0.006,-0.017l0.007,-0.017l0.007,-0.016l0.007,-0.017l0.016,-0.033l0.017,-0.032l0.009,-0.015l0.01,-0.015l0.009,-0.014l0.01,-0.016l0.01,-0.014l0.012,-0.013l0.011,-0.015l0.011,-0.013l0.023,-0.025l0.026,-0.025l0.012,-0.012l0.013,-0.01l0.04,-0.033l0.014,-0.009l0.014,-0.009l0.015,-0.009l0.014,-0.008l0.015,-0.009l0.045,-0.022l0.016,-0.006l0.015,-0.006l0.031,-0.011l0.016,-0.004l0.016,-0.004l0.016,-0.004l0.016,-0.003l0.017,-0.003l0.015,-0.003l0.017,-0.001l0.016,-0.002l0.016,-0.001l0.049,0l0.017,0.001l0.016,0.002l0.016,0.001l0.017,0.002l0.016,0.004l0.016,0.003l0.016,0.003l0.016,0.005l0.016,0.004l0.015,0.005l0.016,0.006l0.016,0.006l0.015,0.006l0.016,0.007l0.015,0.007l0.015,0.008l0.014,0.008l0.015,0.009l0.014,0.008l0.014,0.01l0.014,0.009l0.014,0.01l0.013,0.011l0.014,0.011l0.012,0.011l0.013,0.012l0.012,0.012l0.013,0.012l0.012,0.013l0.011,0.013l0.012,0.012l0.011,0.015l0.011,0.013l0.01,0.014l0.01,0.016l0.01,0.014l0.009,0.015l0.01,0.015l0.008,0.016l0.008,0.017l0.009,0.016l0.007,0.016l0.008,0.016l0.006,0.017l0.007,0.017l0.007,0.017l0.005,0.018l0.006,0.017l0.005,0.017l0.004,0.018l0.005,0.018l0.004,0.018l0.003,0.018l0.003,0.019l0.003,0.018l0.002,0.018l0.002,0.018l0.002,0.019l0.001,0.019l0.001,0.018l0,0.018l0,1.171l0,0.019l0,0.019l-0.001,0.017l-0.002,0.019l-0.001,0.018l-0.003,0.019l-0.003,0.018l-0.003,0.019l-0.003,0.017l-0.004,0.018l-0.004,0.018l-0.005,0.018l-0.005,0.018l-0.005,0.017l-0.006,0.018l-0.007,0.017l-0.006,0.017l-0.007,0.017l-0.007,0.016l-0.008,0.017l-0.008,0.016l-0.009,0.015l-0.008,0.016l-0.009,0.015l-0.01,0.015l-0.01,0.016l-0.009,0.014l-0.011,0.014l-0.011,0.015l-0.011,0.013l-0.011,0.013l-0.012,0.014l-0.011,0.012l-0.013,0.013l-0.013,0.011l-0.012,0.012l-0.013,0.012l-0.013,0.01l-0.014,0.011l-0.013,0.01l-0.014,0.01l-0.015,0.009l-0.014,0.009l-0.015,0.009l-0.014,0.008l-0.015,0.008l-0.015,0.007l-0.015,0.006l-0.016,0.006l-0.015,0.007l-0.015,0.005l-0.016,0.005l-0.016,0.005l-0.017,0.004l-0.015,0.004l-0.016,0.003l-0.017,0.003l-0.015,0.002l-0.017,0.002l-0.017,0.001l-0.015,0.001l-0.017,0.001l-0.017,0l-0.016,-0.001l-0.016,-0.001l-0.016,0l-0.017,-0.002l-0.016,-0.003l-0.016,-0.003l-0.016,-0.003l-0.016,-0.004l-0.016,-0.004l-0.016,-0.005l-0.016,-0.004l-0.015,-0.006l-0.016,-0.006l-0.016,-0.006l-0.015,-0.007l-0.015,-0.007l-0.015,-0.008l-0.014,-0.008l-0.015,-0.008l-0.014,-0.009l-0.014,-0.01l-0.014,-0.009l-0.014,-0.011l-0.013,-0.01l-0.014,-0.011l-0.012,-0.011l-0.013,-0.012l-0.012,-0.012l-0.013,-0.012l-0.012,-0.013l-0.012,-0.013l-0.011,-0.013l-0.011,-0.014l-0.011,-0.014l-0.01,-0.014l-0.01,-0.014l-0.01,-0.016l-0.009,-0.015l-0.01,-0.015l-0.009,-0.015l-0.007,-0.016l-0.009,-0.016l-0.007,-0.017l-0.008,-0.016l-0.007,-0.017l-0.007,-0.017l-0.006,-0.017l-0.005,-0.017l-0.006,-0.018l-0.005,-0.018l-0.005,-0.017l-0.004,-0.019l-0.004,-0.018l-0.003,-0.018l-0.003,-0.017l-0.003,-0.019l-0.002,-0.018l-0.002,-0.019l-0.002,-0.019l-0.001,-0.018l-0.001,-0.018l0,-0.019l0,-1.171l0,-0.018Z"/><path d="M10.712,1.615l0.021,-0.032l0.021,-0.03l0.011,-0.015l0.012,-0.014l0.011,-0.014l0.013,-0.015l0.024,-0.027l0.013,-0.013l0.013,-0.012l0.014,-0.013l0.014,-0.011l0.013,-0.013l0.015,-0.011l0.014,-0.011l0.015,-0.011l0.03,-0.02l0.031,-0.019l0.015,-0.009l0.016,-0.008l0.015,-0.008l0.016,-0.008l0.016,-0.007l0.017,-0.006l0.016,-0.007l0.017,-0.006l0.033,-0.01l0.034,-0.009l0.017,-0.004l0.016,-0.003l0.051,-0.008l0.017,0l0.017,-0.002l0.017,0l0.016,0l0.018,0l0.049,0.004l0.017,0.002l0.016,0.002l0.033,0.007l0.016,0.004l0.015,0.004l0.017,0.005l0.015,0.005l0.015,0.006l0.015,0.006l0.016,0.007l0.014,0.006l0.015,0.008l0.042,0.024l0.014,0.009l0.014,0.01l0.013,0.009l0.013,0.01l0.012,0.011l0.013,0.011l0.012,0.011l0.011,0.012l0.012,0.012l0.011,0.012l0.011,0.012l0.01,0.014l0.01,0.013l0.011,0.013l0.009,0.014l0.009,0.014l0.008,0.014l0.009,0.015l0.008,0.014l0.007,0.016l0.007,0.015l0.007,0.016l0.007,0.016l0.006,0.016l0.005,0.016l0.005,0.017l0.005,0.016l0.005,0.017l0.004,0.017l0.003,0.017l0.004,0.017l0.002,0.018l0.003,0.017l0.002,0.017l0.001,0.019l0.001,0.017l0.001,0.018l0,0.017l0,0.019l-0.001,0.018l-0.001,0.018l-0.002,0.017l-0.001,0.018l-0.003,0.018l-0.002,0.018l-0.003,0.018l-0.004,0.018l-0.004,0.018l-0.005,0.018l-0.005,0.018l-0.005,0.017l-0.005,0.018l-0.006,0.017l-0.007,0.018l-0.007,0.016l-0.007,0.018l-0.007,0.017l-0.008,0.017l-0.009,0.016l-0.008,0.016l-0.01,0.016l-0.584,1.015l-0.01,0.016l-0.01,0.016l-0.009,0.015l-0.011,0.015l-0.01,0.015l-0.012,0.015l-0.011,0.014l-0.013,0.015l-0.011,0.014l-0.013,0.013l-0.012,0.014l-0.013,0.013l-0.014,0.012l-0.012,0.013l-0.015,0.012l-0.014,0.012l-0.014,0.011l-0.014,0.011l-0.014,0.011l-0.016,0.01l-0.015,0.01l-0.015,0.009l-0.015,0.01l-0.015,0.009l-0.016,0.008l-0.017,0.008l-0.015,0.008l-0.017,0.007l-0.016,0.007l-0.016,0.006l-0.017,0.006l-0.016,0.006l-0.017,0.005l-0.017,0.004l-0.017,0.004l-0.016,0.004l-0.017,0.003l-0.017,0.003l-0.017,0.003l-0.017,0.001l-0.017,0.002l-0.017,0l-0.016,0.001l-0.018,0l-0.016,0l-0.017,0l-0.017,-0.002l-0.016,-0.002l-0.017,-0.002l-0.016,-0.003l-0.016,-0.003l-0.016,-0.003l-0.016,-0.004l-0.017,-0.004l-0.015,-0.005l-0.016,-0.005l-0.016,-0.006l-0.014,-0.006l-0.015,-0.007l-0.016,-0.007l-0.014,-0.007l-0.015,-0.007l-0.014,-0.009l-0.014,-0.009l-0.013,-0.008l-0.014,-0.009l-0.013,-0.01l-0.013,-0.01l-0.013,-0.011l-0.012,-0.011l-0.011,-0.011l-0.013,-0.012l-0.011,-0.012l-0.011,-0.012l-0.011,-0.012l-0.01,-0.013l-0.011,-0.013l-0.009,-0.014l-0.01,-0.014l-0.009,-0.014l-0.008,-0.014l-0.009,-0.015l-0.008,-0.015l-0.007,-0.015l-0.008,-0.015l-0.006,-0.016l-0.007,-0.015l-0.006,-0.017l-0.005,-0.016l-0.005,-0.016l-0.005,-0.017l-0.005,-0.016l-0.004,-0.018l-0.004,-0.017l-0.003,-0.017l-0.002,-0.017l-0.003,-0.018l-0.002,-0.017l-0.001,-0.018l-0.001,-0.018l0,-0.018l-0.001,-0.018l0,-0.017l0.001,-0.018l0.001,-0.018l0.002,-0.019l0.001,-0.017l0.003,-0.019l0.003,-0.018l0.003,-0.017l0.003,-0.018l0.005,-0.018l0.004,-0.018l0.004,-0.017l0.006,-0.019l0.006,-0.017l0.006,-0.017l0.006,-0.017l0.007,-0.018l0.007,-0.016l0.008,-0.018l0.008,-0.017l0.008,-0.016l0.008,-0.016l0.01,-0.017l0.585,-1.014l0.008,-0.015Z"/><path d="M1.488,1.615l-0.02,-0.032l-0.021,-0.03l-0.012,-0.015l-0.011,-0.014l-0.011,-0.014l-0.013,-0.015l-0.025,-0.027l-0.013,-0.013l-0.013,-0.012l-0.013,-0.013l-0.014,-0.011l-0.014,-0.013l-0.015,-0.011l-0.014,-0.011l-0.014,-0.011l-0.03,-0.02l-0.031,-0.019l-0.015,-0.009l-0.016,-0.008l-0.016,-0.008l-0.016,-0.008l-0.016,-0.007l-0.016,-0.006l-0.017,-0.007l-0.016,-0.006l-0.033,-0.01l-0.035,-0.009l-0.016,-0.004l-0.017,-0.003l-0.051,-0.008l-0.016,0l-0.018,-0.002l-0.016,0l-0.017,0l-0.017,0l-0.05,0.004l-0.017,0.002l-0.016,0.002l-0.032,0.007l-0.016,0.004l-0.016,0.004l-0.016,0.005l-0.015,0.005l-0.016,0.006l-0.015,0.006l-0.015,0.007l-0.015,0.006l-0.015,0.008l-0.042,0.024l-0.014,0.009l-0.013,0.01l-0.013,0.009l-0.014,0.01l-0.012,0.011l-0.013,0.011l-0.011,0.011l-0.012,0.012l-0.012,0.012l-0.01,0.012l-0.011,0.012l-0.011,0.014l-0.01,0.013l-0.01,0.013l-0.01,0.014l-0.009,0.014l-0.008,0.014l-0.008,0.015l-0.009,0.014l-0.007,0.016l-0.007,0.015l-0.007,0.016l-0.006,0.016l-0.007,0.016l-0.005,0.016l-0.005,0.017l-0.005,0.016l-0.005,0.017l-0.004,0.017l-0.003,0.017l-0.004,0.017l-0.002,0.018l-0.003,0.017l-0.002,0.017l-0.001,0.019l-0.001,0.017l0,0.018l-0.001,0.017l0,0.019l0.002,0.018l0,0.018l0.002,0.017l0.001,0.018l0.003,0.018l0.003,0.018l0.003,0.018l0.004,0.018l0.004,0.018l0.004,0.018l0.005,0.018l0.005,0.017l0.006,0.018l0.006,0.017l0.006,0.018l0.007,0.016l0.008,0.018l0.007,0.017l0.008,0.017l0.008,0.016l0.008,0.016l0.01,0.016l0.585,1.015l0.009,0.016l0.01,0.016l0.01,0.015l0.01,0.015l0.011,0.015l0.011,0.015l0.012,0.014l0.012,0.015l0.012,0.014l0.012,0.013l0.012,0.014l0.013,0.013l0.014,0.012l0.013,0.013l0.014,0.012l0.014,0.012l0.014,0.011l0.015,0.011l0.014,0.011l0.015,0.01l0.015,0.01l0.015,0.009l0.016,0.01l0.015,0.009l0.016,0.008l0.016,0.008l0.015,0.008l0.017,0.007l0.016,0.007l0.016,0.006l0.017,0.006l0.017,0.006l0.016,0.005l0.017,0.004l0.017,0.004l0.017,0.004l0.017,0.003l0.016,0.003l0.017,0.003l0.017,0.001l0.017,0.002l0.017,0l0.017,0.001l0.017,0l0.017,0l0.017,0l0.016,-0.002l0.016,-0.002l0.017,-0.002l0.017,-0.003l0.015,-0.003l0.017,-0.003l0.016,-0.004l0.016,-0.004l0.016,-0.005l0.015,-0.005l0.016,-0.006l0.014,-0.006l0.016,-0.007l0.015,-0.007l0.014,-0.007l0.015,-0.007l0.014,-0.009l0.014,-0.009l0.013,-0.008l0.014,-0.009l0.014,-0.01l0.012,-0.01l0.013,-0.011l0.012,-0.011l0.012,-0.011l0.012,-0.012l0.011,-0.012l0.012,-0.012l0.01,-0.012l0.011,-0.013l0.01,-0.013l0.01,-0.014l0.009,-0.014l0.009,-0.014l0.008,-0.014l0.009,-0.015l0.008,-0.015l0.007,-0.015l0.008,-0.015l0.006,-0.016l0.007,-0.015l0.006,-0.017l0.006,-0.016l0.005,-0.016l0.004,-0.017l0.005,-0.016l0.004,-0.018l0.004,-0.017l0.003,-0.017l0.003,-0.017l0.002,-0.018l0.002,-0.017l0.002,-0.018l0,-0.018l0.001,-0.018l0,-0.018l0,-0.017l-0.001,-0.018l0,-0.018l-0.003,-0.019l-0.001,-0.017l-0.002,-0.019l-0.003,-0.018l-0.003,-0.017l-0.004,-0.018l-0.004,-0.018l-0.004,-0.018l-0.005,-0.017l-0.006,-0.019l-0.005,-0.017l-0.006,-0.017l-0.007,-0.017l-0.006,-0.018l-0.008,-0.016l-0.007,-0.018l-0.008,-0.017l-0.008,-0.016l-0.009,-0.016l-0.01,-0.017l-0.584,-1.014l-0.009,-0.015Z"/></svg>