<svg width="100%" height="100%" viewBox="0 0 14 23" version="1.1" xmlns="http://www.w3.org/2000/svg"><path d="M8.919,18.473l0.035,0l0.035,0.003l0.035,0.003l0.034,0.006l0.035,0.006l0.034,0.008l0.033,0.01l0.034,0.011l0.033,0.012l0.032,0.014l0.031,0.015l0.031,0.016l0.03,0.018l0.03,0.019l0.028,0.02l0.028,0.022l0.027,0.022l0.026,0.024l0.025,0.025l0.023,0.026l0.023,0.026l0.021,0.028l0.02,0.029l0.019,0.029l0.018,0.03l0.017,0.031l0.015,0.032l0.013,0.032l0.013,0.033l0.011,0.033l0.009,0.034l0.008,0.034l0.007,0.034l0.005,0.035l0.004,0.035l0.002,0.035l0.001,0.035l-0.001,0.035l-0.002,0.035l-0.004,0.034l-0.005,0.035l-0.007,0.034l-0.008,0.035l-0.009,0.033l-0.011,0.034l-0.013,0.032l-0.013,0.033l-0.015,0.031l-0.017,0.031l-0.018,0.03l-0.019,0.03l-0.02,0.028l-0.021,0.028l-0.023,0.027l-0.023,0.026l-0.025,0.024l-0.026,0.024l-0.027,0.023l-0.028,0.021l-0.028,0.02l-0.03,0.019l-0.03,0.018l-0.031,0.016l-0.031,0.015l-0.032,0.014l-0.033,0.013l-0.034,0.011l-0.033,0.009l-0.034,0.008l-0.035,0.007l-0.034,0.005l-0.035,0.004l-0.035,0.002l-0.035,0.001l-3.77,0l-0.035,-0.001l-0.035,-0.002l-0.035,-0.004l-0.035,-0.005l-0.034,-0.007l-0.034,-0.008l-0.034,-0.009l-0.033,-0.011l-0.033,-0.013l-0.032,-0.014l-0.032,-0.015l-0.03,-0.016l-0.031,-0.018l-0.029,-0.019l-0.029,-0.02l-0.027,-0.021l-0.027,-0.023l-0.026,-0.024l-0.025,-0.024l-0.023,-0.026l-0.023,-0.027l-0.021,-0.028l-0.021,-0.028l-0.019,-0.03l-0.017,-0.03l-0.017,-0.031l-0.015,-0.031l-0.014,-0.033l-0.012,-0.032l-0.011,-0.034l-0.009,-0.033l-0.009,-0.035l-0.006,-0.034l-0.005,-0.035l-0.004,-0.034l-0.002,-0.035l-0.001,-0.035l0.001,-0.035l0.002,-0.035l0.004,-0.035l0.005,-0.035l0.006,-0.034l0.009,-0.034l0.009,-0.034l0.011,-0.033l0.012,-0.033l0.014,-0.032l0.015,-0.032l0.017,-0.031l0.017,-0.03l0.019,-0.029l0.021,-0.029l0.021,-0.028l0.023,-0.026l0.023,-0.026l0.025,-0.025l0.026,-0.024l0.027,-0.022l0.027,-0.022l0.029,-0.02l0.029,-0.019l0.031,-0.018l0.03,-0.016l0.032,-0.015l0.032,-0.014l0.033,-0.012l0.033,-0.011l0.034,-0.01l0.034,-0.008l0.034,-0.006l0.035,-0.006l0.035,-0.003l0.035,-0.003l0.035,0l3.77,0Z"/><path d="M7.716,20.483l0.02,0.001l0.021,0.001l0.021,0.002l0.02,0.002l0.021,0.003l0.02,0.003l0.021,0.004l0.02,0.005l0.02,0.004l0.02,0.006l0.02,0.006l0.02,0.006l0.019,0.007l0.02,0.007l0.019,0.008l0.019,0.009l0.019,0.008l0.018,0.01l0.018,0.009l0.019,0.011l0.017,0.01l0.018,0.011l0.017,0.012l0.017,0.012l0.017,0.012l0.016,0.013l0.016,0.013l0.016,0.014l0.015,0.014l0.015,0.014l0.014,0.015l0.015,0.015l0.013,0.016l0.014,0.015l0.013,0.016l0.012,0.017l0.013,0.017l0.011,0.017l0.012,0.017l0.011,0.018l0.01,0.018l0.01,0.018l0.01,0.018l0.009,0.019l0.008,0.019l0.009,0.019l0.007,0.019l0.007,0.02l0.007,0.019l0.006,0.02l0.006,0.02l0.005,0.02l0.005,0.02l0.004,0.02l0.003,0.021l0.004,0.02l0.002,0.021l0.002,0.021l0.002,0.02l0.001,0.021l0.001,0.021l0,0.02l-0.001,0.021l-0.001,0.021l-0.002,0.021l-0.002,0.02l-0.002,0.021l-0.003,0.02l-0.004,0.021l-0.004,0.02l-0.005,0.02l-0.005,0.02l-0.005,0.02l-0.007,0.02l-0.006,0.02l-0.007,0.019l-0.008,0.019l-0.008,0.02l-0.009,0.018l-0.009,0.019l-0.009,0.018l-0.01,0.019l-0.011,0.018l-0.011,0.017l-0.011,0.018l-0.012,0.017l-0.012,0.016l-0.012,0.017l-0.013,0.016l-0.014,0.016l-0.014,0.015l-0.014,0.015l-0.014,0.015l-0.015,0.015l-0.015,0.014l-0.016,0.013l-0.016,0.014l-0.016,0.012l-0.017,0.013l-0.017,0.012l-0.017,0.011l-0.018,0.011l-0.017,0.011l-0.018,0.01l-0.019,0.01l-0.018,0.009l-0.019,0.009l-0.019,0.009l-0.019,0.008l-0.019,0.007l-0.02,0.007l-0.02,0.006l-0.02,0.006l-0.02,0.006l-0.02,0.005l-0.02,0.004l-0.02,0.004l-0.021,0.003l-0.02,0.003l-0.021,0.002l-0.021,0.002l-0.02,0.002l-0.021,0l-0.021,0.001l-1.31,0.001l-0.021,-0.001l-0.02,0l-0.021,-0.002l-0.021,-0.001l-0.02,-0.003l-0.021,-0.003l-0.02,-0.003l-0.021,-0.004l-0.02,-0.004l-0.02,-0.005l-0.02,-0.005l-0.02,-0.006l-0.02,-0.007l-0.019,-0.007l-0.02,-0.007l-0.019,-0.008l-0.019,-0.008l-0.018,-0.009l-0.019,-0.009l-0.018,-0.01l-0.018,-0.01l-0.018,-0.011l-0.018,-0.011l-0.017,-0.012l-0.017,-0.011l-0.016,-0.013l-0.017,-0.013l-0.016,-0.013l-0.015,-0.013l-0.016,-0.014l-0.015,-0.015l-0.014,-0.015l-0.014,-0.015l-0.014,-0.015l-0.014,-0.016l-0.013,-0.016l-0.012,-0.017l-0.013,-0.016l-0.011,-0.017l-0.012,-0.018l-0.011,-0.017l-0.01,-0.018l-0.01,-0.018l-0.01,-0.019l-0.009,-0.018l-0.008,-0.019l-0.008,-0.019l-0.008,-0.02l-0.007,-0.019l-0.007,-0.02l-0.006,-0.02l-0.006,-0.019l-0.005,-0.021l-0.005,-0.02l-0.004,-0.02l-0.003,-0.02l-0.003,-0.021l-0.003,-0.021l-0.002,-0.02l-0.002,-0.021l-0.001,-0.021l0,-0.02l0,-0.021l0,-0.021l0.001,-0.02l0.002,-0.021l0.002,-0.021l0.002,-0.02l0.003,-0.021l0.004,-0.02l0.004,-0.021l0.005,-0.02l0.005,-0.02l0.006,-0.02l0.006,-0.02l0.006,-0.019l0.008,-0.02l0.007,-0.019l0.008,-0.019l0.009,-0.019l0.009,-0.019l0.009,-0.018l0.01,-0.018l0.011,-0.018l0.011,-0.018l0.011,-0.017l0.012,-0.017l0.012,-0.017l0.012,-0.017l0.013,-0.016l0.014,-0.015l0.014,-0.016l0.014,-0.015l0.014,-0.015l0.015,-0.014l0.016,-0.014l0.015,-0.014l0.016,-0.013l0.017,-0.013l0.016,-0.012l0.017,-0.012l0.017,-0.012l0.018,-0.011l0.018,-0.011l0.018,-0.01l0.018,-0.01l0.018,-0.009l0.019,-0.009l0.019,-0.008l0.019,-0.008l0.02,-0.008l0.019,-0.006l0.02,-0.007l0.02,-0.006l0.02,-0.005l0.02,-0.005l0.02,-0.005l0.021,-0.003l0.02,-0.004l0.021,-0.003l0.02,-0.002l0.021,-0.002l0.02,-0.001l0.021,-0.001l0.021,0l1.31,-0.001l0.021,0Z"/><path d="M6.898,0.835c3.347,0 6.064,2.717 6.064,6.063c0,2.092 -2.726,9.489 -3.514,10.299l-4.589,-0.049c-0.789,-0.822 -4.024,-7.92 -4.024,-10.25c0,-3.346 2.717,-6.063 6.063,-6.063Z" fill="#ffe042" stroke="#000" stroke-width="1.67px"/></svg>