<?xml version="1.0" encoding="UTF-8" standalone="no"?><!DOCTYPE svg PUBLIC "-//W3C//DTD SVG 1.1//EN" "http://www.w3.org/Graphics/SVG/1.1/DTD/svg11.dtd"><svg width="100%" height="100%" viewBox="0 0 612 592" version="1.1" xmlns="http://www.w3.org/2000/svg" xmlns:xlink="http://www.w3.org/1999/xlink" xml:space="preserve" xmlns:serif="http://www.serif.com/" style="fill-rule:evenodd;clip-rule:evenodd;stroke-linecap:round;stroke-linejoin:round;stroke-miterlimit:1.5;"><path d="M144.716,16.739c57.295,-6.084 121.917,20.447 161.209,95.103c60.954,-115.812 182.861,-115.812 243.815,-57.906c60.956,57.906 60.956,173.717 0,289.529c-23.922,48.697 -72.111,115.595 -124.161,164.977c-0.273,0.28 -0.559,0.552 -0.859,0.815c-0.815,3.07 -16.106,16.466 -35.846,30.363c-26.914,20.059 -53.599,33.39 -77.339,35.245c-13.682,1.365 -24.899,-0.789 -30.276,-2.218c-0.228,-0.061 -2.968,-1.099 -7.669,-3.185c-29.221,-9.529 -60.605,-30.413 -90.326,-56.811l-0.028,-0.023c-45.855,-38.141 -94.23,-98.386 -110.048,-130.567c-34.271,-69.722 -58.267,-148.612 -57.257,-206.975c1.11,-64.166 29.356,-104.809 35.381,-111.188c7.452,-7.748 14.386,-13.743 20.96,-18.651c5.843,-4.498 12.099,-8.533 18.689,-12.067c2.786,-1.577 5.529,-3.063 8.244,-4.524c3.399,-1.828 8.617,-3.592 14.324,-5.175c9.995,-3.322 20.461,-5.603 31.183,-6.741l0.001,-0.001l0.003,0Zm280.863,491.703c28.031,-28.517 -73.738,-136.964 -118.301,-100.476c-7.32,5.995 -16.201,9.772 -23.693,15.707c-7.493,5.936 -15.17,11.23 -23.031,15.884c-7.862,4.654 -13.782,6.452 -17.759,5.395c-1.989,-0.529 -4.329,-1.742 -7.018,-3.64c-2.69,-1.897 -4.706,-3.439 -6.047,-4.623c-1.342,-1.185 -3.582,-3.436 -6.723,-6.755c-3.14,-3.319 -4.902,-5.148 -5.285,-5.486c-25.813,-24.842 -46.67,-50.969 -62.572,-78.382c-15.902,-27.412 -28.227,-58.489 -36.977,-93.228c-0.104,-0.501 -0.816,-2.938 -2.138,-7.312c-1.322,-4.373 -2.165,-7.436 -2.527,-9.189c-0.362,-1.752 -0.7,-4.267 -1.012,-7.544c-0.312,-3.277 -0.204,-5.91 0.325,-7.899c1.057,-3.978 5.557,-8.224 13.5,-12.738c7.942,-4.514 16.35,-8.55 25.221,-12.107c8.872,-3.557 17.629,-7.344 25.398,-12.77c64.289,-44.902 29.782,-172.299 -32.224,-166.54l-0.004,0.001c-0.159,0.026 -17.149,2.841 -31.183,6.741c-7.847,2.608 -15.405,5.857 -22.568,9.699c-5.98,3.385 -12.157,7.189 -18.689,12.067c-3.545,2.728 -6.938,5.627 -10.161,8.689c-60.953,57.906 -55.172,195.467 5.781,311.279c23.07,46.962 67.018,104.493 115.372,147.436c38.298,31.85 74.888,49.971 90.326,56.811c11.166,3.643 22.015,5.626 32.335,5.626c1.851,0 3.721,-0.075 5.61,-0.223c5.64,-0.562 11.701,-1.723 17.944,-3.78c10.899,-3.592 24.487,-9.283 37.266,-16.982c7.637,-4.602 15.161,-9.573 22.129,-14.483c12.273,-9.144 24.594,-19.687 36.705,-31.178Z" style="fill:#60b5ff;stroke:#60b5ff;stroke-width:31.8px;"/></svg>