<svg width="246" height="246" fill="none" xmlns="http://www.w3.org/2000/svg"><path d="M157.736,39.422c0,-13.939 -0.727,-25.614 -14.666,-25.614c5.685,0.843 3.25,69.659 3.25,69.659c-2.25,8.03 -9.191,20.128 -31.021,20.674c-38.005,-0.956 -94.325,0.839 -98.707,-2.867c0.163,11.001 15.39,13.82 22.255,13.912c31.209,0.417 62.424,0.264 93.634,0c13.781,0 25.255,-11.518 25.255,-25.255l0,-50.509Z" fill="url(#paint0_radial)"/><path d="M143.736,25.422c0,-13.939 -11.527,-25.401 -25.466,-25.401l-92.533,0c-13.216,-0.021 -25.3,9.836 -25.3,25.781l0,50.164c0,11.001 7.206,25.074 25.1,25.074c0,0 61.734,0.41 92.944,0.146c13.939,0 25.255,-11.316 25.255,-25.255l0,-50.509Z" fill="url(#paint0_radial)"/><path d="M130.906,32.098c0,-10.095 -8.195,-18.29 -18.29,-18.29l-81.805,0c-10.094,0 -18.29,8.195 -18.29,18.29l0,36.579c0,10.095 8.196,18.29 18.29,18.29l81.805,0c10.095,0 18.29,-8.195 18.29,-18.29l0,-36.579Z" fill="#fff"/><path d="M50.519,42.219l41.012,50.778l-82.025,0l41.013,-50.778Z" fill="url(#paint0_radial)"/><path d="M88.275,57.682l28.524,35.315l-57.047,0l28.523,-35.315Z" fill="url(#paint0_radial)"/><ellipse cx="119.958" cy="25.802" rx="17.171" ry="15.945" fill="url(#paint0_radial)"/><defs xmlns="http://www.w3.org/2000/svg"><radialGradient id="paint0_radial" cx="0" cy="0" r="1" gradientUnits="userSpaceOnUse" gradientTransform="rotate(138.814 76.06 70.003) scale(151.48 150.139)"><stop stop-color="#9D62FC"/><stop offset="1" stop-color="#FD3296"/></radialGradient></defs></svg>