<svg width="100%" height="100%" viewBox="0 0 512 512" xmlns="http://www.w3.org/2000/svg" fill="white"><rect x="237.314" y="409.226" width="37.372" height="84.088"/><path d="M305.207,474.628l-98.414,0c-10.321,0 -18.686,8.365 -18.686,18.686c0,10.321 8.365,18.686 18.686,18.686l98.414,0c10.321,0 18.686,-8.365 18.686,-18.686c0,-10.321 -8.365,-18.686 -18.686,-18.686Z"/><path d="M397.392,234.822c-10.321,0 -18.686,8.365 -18.686,18.686l0,14.949c0,67.656 -55.049,122.706 -122.706,122.706c-67.662,0 -122.706,-55.049 -122.706,-122.706l0,-14.949c0,-10.321 -8.365,-18.686 -18.686,-18.686c-10.321,0 -18.686,8.365 -18.686,18.686l0,14.949c0,88.267 71.811,160.078 160.078,160.078c88.267,0 160.078,-71.811 160.078,-160.078l0,-14.949c0,-10.32 -8.365,-18.686 -18.758,-18.686l0.072,0Z"/><path d="M256,0c-49.456,0 -89.693,40.237 -89.693,89.693l0,176.279c0,49.45 40.237,89.687 89.693,89.687c49.456,0 89.693,-39.957 89.693,-89.071l0,-176.895c0,-49.456 -40.237,-89.693 -89.693,-89.693Z"/></svg>
