<?xml version="1.0" encoding="UTF-8" standalone="no"?><!DOCTYPE svg PUBLIC "-//W3C//DTD SVG 1.1//EN" "http://www.w3.org/Graphics/SVG/1.1/DTD/svg11.dtd"><svg width="100%" height="100%" viewBox="0 0 33 6" version="1.1" xmlns="http://www.w3.org/2000/svg" xmlns:xlink="http://www.w3.org/1999/xlink" xml:space="preserve" xmlns:serif="http://www.serif.com/" style="fill-rule:evenodd;clip-rule:evenodd;stroke-linejoin:round;stroke-miterlimit:1.41421;"><path d="M3.669,0.8l-0.619,0.496c-0.164,-0.17 -0.312,-0.296 -0.445,-0.38c-0.133,-0.083 -0.325,-0.125 -0.577,-0.125c-0.275,0 -0.497,0.062 -0.668,0.186c-0.171,0.124 -0.257,0.284 -0.257,0.48c0,0.169 0.075,0.319 0.224,0.449c0.149,0.13 0.404,0.272 0.764,0.427c0.359,0.154 0.639,0.298 0.84,0.431c0.2,0.134 0.364,0.281 0.493,0.442c0.129,0.161 0.224,0.331 0.287,0.509c0.063,0.179 0.095,0.367 0.095,0.567c0,0.465 -0.17,0.862 -0.508,1.19c-0.338,0.327 -0.748,0.491 -1.228,0.491c-0.469,0 -0.883,-0.128 -1.242,-0.384c-0.359,-0.256 -0.635,-0.641 -0.828,-1.154l0.765,-0.215c0.278,0.63 0.704,0.945 1.278,0.945c0.279,0 0.51,-0.083 0.695,-0.25c0.184,-0.166 0.277,-0.377 0.277,-0.631c0,-0.152 -0.049,-0.304 -0.146,-0.458c-0.096,-0.153 -0.217,-0.279 -0.36,-0.379c-0.144,-0.099 -0.372,-0.213 -0.686,-0.341c-0.313,-0.129 -0.555,-0.247 -0.724,-0.354c-0.169,-0.107 -0.315,-0.234 -0.439,-0.382c-0.123,-0.148 -0.213,-0.295 -0.271,-0.441c-0.057,-0.146 -0.086,-0.303 -0.086,-0.47c0,-0.401 0.161,-0.743 0.484,-1.025c0.322,-0.283 0.713,-0.424 1.173,-0.424c0.305,0 0.614,0.066 0.927,0.198c0.314,0.132 0.574,0.332 0.782,0.602Z" style="fill-rule:nonzero;"/><path d="M4.408,0.176l3.423,0l0,0.764l-1.336,0l0,4.834l-0.756,0l0,-4.834l-1.331,0l0,-0.764Z" style="fill-rule:nonzero;"/><path d="M8.666,0.185l0.765,0l0,3.44c0,0.51 0.122,0.904 0.367,1.183c0.244,0.278 0.591,0.417 1.039,0.417c0.445,0 0.792,-0.128 1.039,-0.384c0.248,-0.257 0.372,-0.618 0.372,-1.084l0,-3.572l0.764,0l0,3.52c0,0.685 -0.195,1.233 -0.586,1.643c-0.392,0.41 -0.912,0.615 -1.563,0.615c-0.665,0 -1.197,-0.208 -1.597,-0.624c-0.4,-0.416 -0.6,-1.029 -0.6,-1.841l0,-3.313Z" style="fill-rule:nonzero;"/><path d="M14.137,0.176l1.358,0c1.075,0 1.875,0.284 2.4,0.852c0.524,0.569 0.786,1.218 0.786,1.947c0,0.735 -0.271,1.386 -0.813,1.951c-0.542,0.566 -1.33,0.848 -2.364,0.848l-1.367,0l0,-5.598Zm0.765,0.747l0,4.096l0.044,0c0.568,0 0.996,-0.026 1.283,-0.077c0.287,-0.052 0.56,-0.164 0.817,-0.337c0.258,-0.172 0.463,-0.402 0.616,-0.687c0.152,-0.286 0.228,-0.6 0.228,-0.943c0,-0.431 -0.121,-0.82 -0.365,-1.169c-0.243,-0.348 -0.534,-0.583 -0.872,-0.703c-0.338,-0.12 -0.793,-0.18 -1.364,-0.18l-0.387,0Z" style="fill-rule:nonzero;"/><rect x="19.551" y="0.176" width="0.756" height="5.599" style="fill-rule:nonzero;"/><path d="M21.305,2.942c0,-0.808 0.304,-1.5 0.914,-2.077c0.609,-0.577 1.342,-0.865 2.197,-0.865c0.835,0 1.554,0.291 2.158,0.872c0.603,0.581 0.905,1.271 0.905,2.07c0,0.846 -0.298,1.561 -0.894,2.145c-0.596,0.584 -1.328,0.876 -2.195,0.876c-0.856,0 -1.584,-0.294 -2.184,-0.882c-0.601,-0.589 -0.901,-1.302 -0.901,-2.139Zm5.361,0.035c0,-0.617 -0.223,-1.138 -0.668,-1.56c-0.445,-0.423 -0.993,-0.635 -1.644,-0.635c-0.618,0 -1.147,0.215 -1.588,0.646c-0.441,0.43 -0.662,0.946 -0.662,1.549c0,0.612 0.227,1.129 0.679,1.552c0.453,0.423 1.008,0.635 1.664,0.635c0.603,0 1.124,-0.216 1.562,-0.648c0.438,-0.432 0.657,-0.945 0.657,-1.539Z" style="fill-rule:nonzero;"/><path d="M31.896,0.8l-0.62,0.496c-0.164,-0.17 -0.312,-0.296 -0.445,-0.38c-0.133,-0.083 -0.325,-0.125 -0.577,-0.125c-0.275,0 -0.497,0.062 -0.668,0.186c-0.171,0.124 -0.257,0.284 -0.257,0.48c0,0.169 0.075,0.319 0.224,0.449c0.149,0.13 0.404,0.272 0.764,0.427c0.359,0.154 0.639,0.298 0.84,0.431c0.2,0.134 0.364,0.281 0.493,0.442c0.129,0.161 0.225,0.331 0.287,0.509c0.063,0.179 0.095,0.367 0.095,0.567c0,0.465 -0.169,0.862 -0.508,1.19c-0.338,0.327 -0.748,0.491 -1.228,0.491c-0.469,0 -0.883,-0.128 -1.242,-0.384c-0.358,-0.256 -0.635,-0.641 -0.828,-1.154l0.765,-0.215c0.278,0.63 0.704,0.945 1.279,0.945c0.278,0 0.509,-0.083 0.694,-0.25c0.184,-0.166 0.277,-0.377 0.277,-0.631c0,-0.152 -0.049,-0.304 -0.145,-0.458c-0.097,-0.153 -0.217,-0.279 -0.361,-0.379c-0.144,-0.099 -0.372,-0.213 -0.686,-0.341c-0.313,-0.129 -0.555,-0.247 -0.724,-0.354c-0.169,-0.107 -0.315,-0.234 -0.438,-0.382c-0.124,-0.148 -0.214,-0.295 -0.272,-0.441c-0.057,-0.146 -0.086,-0.303 -0.086,-0.47c0,-0.401 0.161,-0.743 0.484,-1.025c0.322,-0.283 0.713,-0.424 1.173,-0.424c0.305,0 0.614,0.066 0.927,0.198c0.314,0.132 0.575,0.332 0.783,0.602Z" style="fill-rule:nonzero;"/></svg>